<mxfile host="app.diagrams.net" modified="2022-05-13T10:17:22.758Z" agent="5.0 (Windows NT 10.0; Win64; x64) AppleWebKit/537.36 (KHTML, like Gecko) Chrome/101.0.4951.64 Safari/537.36" etag="RUItJx3aXKYBeZFjke1z" version="18.0.3" type="github">
  <diagram id="rGrG1zmKh9LlXgDO_lIi" name="Page-1">
    <mxGraphModel dx="1422" dy="738" grid="1" gridSize="10" guides="1" tooltips="1" connect="1" arrows="1" fold="1" page="1" pageScale="1" pageWidth="827" pageHeight="1169" math="0" shadow="0">
      <root>
        <mxCell id="0" />
        <mxCell id="1" parent="0" />
        <mxCell id="WOlkQkPbS2jkbCL8DzLu-10" style="edgeStyle=orthogonalEdgeStyle;rounded=0;orthogonalLoop=1;jettySize=auto;html=1;exitX=1;exitY=0.5;exitDx=0;exitDy=0;entryX=0;entryY=0.5;entryDx=0;entryDy=0;fontSize=16;" edge="1" parent="1" source="WOlkQkPbS2jkbCL8DzLu-1" target="WOlkQkPbS2jkbCL8DzLu-7">
          <mxGeometry relative="1" as="geometry" />
        </mxCell>
        <mxCell id="WOlkQkPbS2jkbCL8DzLu-11" style="edgeStyle=orthogonalEdgeStyle;rounded=0;orthogonalLoop=1;jettySize=auto;html=1;exitX=1;exitY=0.5;exitDx=0;exitDy=0;entryX=0;entryY=0.5;entryDx=0;entryDy=0;fontSize=16;" edge="1" parent="1" source="WOlkQkPbS2jkbCL8DzLu-1" target="WOlkQkPbS2jkbCL8DzLu-8">
          <mxGeometry relative="1" as="geometry" />
        </mxCell>
        <mxCell id="WOlkQkPbS2jkbCL8DzLu-1" value="装修设计帮帮网" style="rounded=1;whiteSpace=wrap;html=1;fillColor=#ffe6cc;strokeColor=#d79b00;fontSize=16;" vertex="1" parent="1">
          <mxGeometry x="70" y="530" width="120" height="60" as="geometry" />
        </mxCell>
        <mxCell id="WOlkQkPbS2jkbCL8DzLu-5" style="edgeStyle=orthogonalEdgeStyle;rounded=0;orthogonalLoop=1;jettySize=auto;html=1;exitX=0.5;exitY=1;exitDx=0;exitDy=0;entryX=0.5;entryY=0;entryDx=0;entryDy=0;fontSize=16;" edge="1" parent="1" source="WOlkQkPbS2jkbCL8DzLu-2" target="WOlkQkPbS2jkbCL8DzLu-4">
          <mxGeometry relative="1" as="geometry" />
        </mxCell>
        <mxCell id="WOlkQkPbS2jkbCL8DzLu-2" value="Vue网站端" style="rounded=1;whiteSpace=wrap;html=1;fontSize=16;fillColor=#f5f5f5;fontColor=#333333;strokeColor=#666666;" vertex="1" parent="1">
          <mxGeometry x="260" y="80" width="120" height="60" as="geometry" />
        </mxCell>
        <mxCell id="WOlkQkPbS2jkbCL8DzLu-6" style="edgeStyle=orthogonalEdgeStyle;rounded=0;orthogonalLoop=1;jettySize=auto;html=1;exitX=0.5;exitY=1;exitDx=0;exitDy=0;fontSize=16;entryX=0.5;entryY=0;entryDx=0;entryDy=0;" edge="1" parent="1" source="WOlkQkPbS2jkbCL8DzLu-3" target="WOlkQkPbS2jkbCL8DzLu-4">
          <mxGeometry relative="1" as="geometry">
            <mxPoint x="420" y="230" as="targetPoint" />
          </mxGeometry>
        </mxCell>
        <mxCell id="WOlkQkPbS2jkbCL8DzLu-3" value="Vue管理端" style="rounded=1;whiteSpace=wrap;html=1;fontSize=16;fillColor=#f5f5f5;fontColor=#333333;strokeColor=#666666;" vertex="1" parent="1">
          <mxGeometry x="470" y="80" width="120" height="60" as="geometry" />
        </mxCell>
        <mxCell id="WOlkQkPbS2jkbCL8DzLu-4" value="Springboot&lt;br&gt;服务端" style="rounded=1;whiteSpace=wrap;html=1;fontSize=16;fillColor=#d5e8d4;strokeColor=#82b366;" vertex="1" parent="1">
          <mxGeometry x="360" y="240" width="120" height="60" as="geometry" />
        </mxCell>
        <mxCell id="WOlkQkPbS2jkbCL8DzLu-7" value="网站端" style="rounded=1;whiteSpace=wrap;html=1;fillColor=#dae8fc;strokeColor=#6c8ebf;fontSize=16;" vertex="1" parent="1">
          <mxGeometry x="260" y="430" width="120" height="60" as="geometry" />
        </mxCell>
        <mxCell id="WOlkQkPbS2jkbCL8DzLu-22" style="edgeStyle=orthogonalEdgeStyle;rounded=0;orthogonalLoop=1;jettySize=auto;html=1;exitX=1;exitY=0.5;exitDx=0;exitDy=0;entryX=0;entryY=0.5;entryDx=0;entryDy=0;fontSize=16;" edge="1" parent="1" source="WOlkQkPbS2jkbCL8DzLu-8" target="WOlkQkPbS2jkbCL8DzLu-15">
          <mxGeometry relative="1" as="geometry" />
        </mxCell>
        <mxCell id="WOlkQkPbS2jkbCL8DzLu-23" style="edgeStyle=orthogonalEdgeStyle;rounded=0;orthogonalLoop=1;jettySize=auto;html=1;exitX=1;exitY=0.5;exitDx=0;exitDy=0;entryX=0;entryY=0.5;entryDx=0;entryDy=0;fontSize=16;" edge="1" parent="1" source="WOlkQkPbS2jkbCL8DzLu-8" target="WOlkQkPbS2jkbCL8DzLu-16">
          <mxGeometry relative="1" as="geometry" />
        </mxCell>
        <mxCell id="WOlkQkPbS2jkbCL8DzLu-24" style="edgeStyle=orthogonalEdgeStyle;rounded=0;orthogonalLoop=1;jettySize=auto;html=1;exitX=1;exitY=0.5;exitDx=0;exitDy=0;entryX=0;entryY=0.5;entryDx=0;entryDy=0;fontSize=16;" edge="1" parent="1" source="WOlkQkPbS2jkbCL8DzLu-8" target="WOlkQkPbS2jkbCL8DzLu-18">
          <mxGeometry relative="1" as="geometry" />
        </mxCell>
        <mxCell id="WOlkQkPbS2jkbCL8DzLu-25" style="edgeStyle=orthogonalEdgeStyle;rounded=0;orthogonalLoop=1;jettySize=auto;html=1;exitX=1;exitY=0.5;exitDx=0;exitDy=0;entryX=0;entryY=0.5;entryDx=0;entryDy=0;fontSize=16;" edge="1" parent="1" source="WOlkQkPbS2jkbCL8DzLu-8" target="WOlkQkPbS2jkbCL8DzLu-14">
          <mxGeometry relative="1" as="geometry" />
        </mxCell>
        <mxCell id="WOlkQkPbS2jkbCL8DzLu-26" style="edgeStyle=orthogonalEdgeStyle;rounded=0;orthogonalLoop=1;jettySize=auto;html=1;exitX=1;exitY=0.5;exitDx=0;exitDy=0;entryX=0;entryY=0.5;entryDx=0;entryDy=0;fontSize=16;" edge="1" parent="1" source="WOlkQkPbS2jkbCL8DzLu-8" target="WOlkQkPbS2jkbCL8DzLu-12">
          <mxGeometry relative="1" as="geometry" />
        </mxCell>
        <mxCell id="WOlkQkPbS2jkbCL8DzLu-27" style="edgeStyle=orthogonalEdgeStyle;rounded=0;orthogonalLoop=1;jettySize=auto;html=1;exitX=1;exitY=0.5;exitDx=0;exitDy=0;entryX=0;entryY=0.5;entryDx=0;entryDy=0;fontSize=16;" edge="1" parent="1" source="WOlkQkPbS2jkbCL8DzLu-8" target="WOlkQkPbS2jkbCL8DzLu-13">
          <mxGeometry relative="1" as="geometry" />
        </mxCell>
        <mxCell id="WOlkQkPbS2jkbCL8DzLu-28" style="edgeStyle=orthogonalEdgeStyle;rounded=0;orthogonalLoop=1;jettySize=auto;html=1;exitX=1;exitY=0.5;exitDx=0;exitDy=0;entryX=0;entryY=0.5;entryDx=0;entryDy=0;fontSize=16;" edge="1" parent="1" source="WOlkQkPbS2jkbCL8DzLu-8" target="WOlkQkPbS2jkbCL8DzLu-19">
          <mxGeometry relative="1" as="geometry" />
        </mxCell>
        <mxCell id="WOlkQkPbS2jkbCL8DzLu-29" style="edgeStyle=orthogonalEdgeStyle;rounded=0;orthogonalLoop=1;jettySize=auto;html=1;exitX=1;exitY=0.5;exitDx=0;exitDy=0;entryX=0;entryY=0.5;entryDx=0;entryDy=0;fontSize=16;" edge="1" parent="1" source="WOlkQkPbS2jkbCL8DzLu-8" target="WOlkQkPbS2jkbCL8DzLu-21">
          <mxGeometry relative="1" as="geometry" />
        </mxCell>
        <mxCell id="WOlkQkPbS2jkbCL8DzLu-8" value="管理端" style="rounded=1;whiteSpace=wrap;html=1;fillColor=#dae8fc;strokeColor=#6c8ebf;fontSize=16;" vertex="1" parent="1">
          <mxGeometry x="260" y="730" width="120" height="60" as="geometry" />
        </mxCell>
        <mxCell id="WOlkQkPbS2jkbCL8DzLu-9" value="权限管理" style="rounded=1;whiteSpace=wrap;html=1;fillColor=#f5f5f5;strokeColor=#666666;fontSize=16;fontColor=#333333;" vertex="1" parent="1">
          <mxGeometry x="590" y="800" width="120" height="30" as="geometry" />
        </mxCell>
        <mxCell id="WOlkQkPbS2jkbCL8DzLu-31" style="edgeStyle=orthogonalEdgeStyle;rounded=0;orthogonalLoop=1;jettySize=auto;html=1;exitX=1;exitY=0.5;exitDx=0;exitDy=0;entryX=0;entryY=0.5;entryDx=0;entryDy=0;fontSize=16;" edge="1" parent="1" source="WOlkQkPbS2jkbCL8DzLu-12" target="WOlkQkPbS2jkbCL8DzLu-9">
          <mxGeometry relative="1" as="geometry" />
        </mxCell>
        <mxCell id="WOlkQkPbS2jkbCL8DzLu-12" value="用户管理" style="rounded=1;whiteSpace=wrap;html=1;fillColor=#f5f5f5;strokeColor=#666666;fontSize=16;fontColor=#333333;" vertex="1" parent="1">
          <mxGeometry x="450" y="800" width="120" height="30" as="geometry" />
        </mxCell>
        <mxCell id="WOlkQkPbS2jkbCL8DzLu-13" value="日志管理" style="rounded=1;whiteSpace=wrap;html=1;fillColor=#f5f5f5;strokeColor=#666666;fontSize=16;fontColor=#333333;" vertex="1" parent="1">
          <mxGeometry x="450" y="850" width="120" height="30" as="geometry" />
        </mxCell>
        <mxCell id="WOlkQkPbS2jkbCL8DzLu-30" style="edgeStyle=orthogonalEdgeStyle;rounded=0;orthogonalLoop=1;jettySize=auto;html=1;exitX=1;exitY=0.5;exitDx=0;exitDy=0;entryX=0;entryY=0.5;entryDx=0;entryDy=0;fontSize=16;" edge="1" parent="1" source="WOlkQkPbS2jkbCL8DzLu-14" target="WOlkQkPbS2jkbCL8DzLu-17">
          <mxGeometry relative="1" as="geometry" />
        </mxCell>
        <mxCell id="WOlkQkPbS2jkbCL8DzLu-14" value="资讯管理" style="rounded=1;whiteSpace=wrap;html=1;fillColor=#e1d5e7;strokeColor=#9673a6;fontSize=16;" vertex="1" parent="1">
          <mxGeometry x="450" y="750" width="120" height="30" as="geometry" />
        </mxCell>
        <mxCell id="WOlkQkPbS2jkbCL8DzLu-15" value="需求管理" style="rounded=1;whiteSpace=wrap;html=1;fillColor=#e1d5e7;strokeColor=#9673a6;fontSize=16;" vertex="1" parent="1">
          <mxGeometry x="450" y="600" width="120" height="30" as="geometry" />
        </mxCell>
        <mxCell id="WOlkQkPbS2jkbCL8DzLu-16" value="方案管理" style="rounded=1;whiteSpace=wrap;html=1;fillColor=#e1d5e7;strokeColor=#9673a6;fontSize=16;" vertex="1" parent="1">
          <mxGeometry x="450" y="650" width="120" height="30" as="geometry" />
        </mxCell>
        <mxCell id="WOlkQkPbS2jkbCL8DzLu-17" value="评论管理" style="rounded=1;whiteSpace=wrap;html=1;fillColor=#e1d5e7;strokeColor=#9673a6;fontSize=16;" vertex="1" parent="1">
          <mxGeometry x="590" y="750" width="120" height="30" as="geometry" />
        </mxCell>
        <mxCell id="WOlkQkPbS2jkbCL8DzLu-18" value="装修申请" style="rounded=1;whiteSpace=wrap;html=1;fillColor=#e1d5e7;strokeColor=#9673a6;fontSize=16;" vertex="1" parent="1">
          <mxGeometry x="450" y="700" width="120" height="30" as="geometry" />
        </mxCell>
        <mxCell id="WOlkQkPbS2jkbCL8DzLu-19" value="轮播图管理" style="rounded=1;whiteSpace=wrap;html=1;fillColor=#f5f5f5;strokeColor=#666666;fontSize=16;fontColor=#333333;" vertex="1" parent="1">
          <mxGeometry x="450" y="900" width="120" height="30" as="geometry" />
        </mxCell>
        <mxCell id="WOlkQkPbS2jkbCL8DzLu-21" value="通知管理" style="rounded=1;whiteSpace=wrap;html=1;fillColor=#f5f5f5;strokeColor=#666666;fontSize=16;fontColor=#333333;" vertex="1" parent="1">
          <mxGeometry x="450" y="940" width="120" height="30" as="geometry" />
        </mxCell>
        <mxCell id="WOlkQkPbS2jkbCL8DzLu-34" value="装修设计师" style="outlineConnect=0;dashed=0;verticalLabelPosition=bottom;verticalAlign=top;align=center;html=1;shape=mxgraph.aws3.role;fillColor=#759C3E;gradientColor=none;fontSize=16;" vertex="1" parent="1">
          <mxGeometry x="346" y="1141" width="100" height="90" as="geometry" />
        </mxCell>
        <mxCell id="WOlkQkPbS2jkbCL8DzLu-36" value="管理员" style="shape=image;html=1;verticalAlign=top;verticalLabelPosition=bottom;labelBackgroundColor=#ffffff;imageAspect=0;aspect=fixed;image=https://cdn0.iconfinder.com/data/icons/business-startup-10/50/76-128.png;fontSize=16;" vertex="1" parent="1">
          <mxGeometry x="170" y="1141" width="89" height="89" as="geometry" />
        </mxCell>
        <mxCell id="WOlkQkPbS2jkbCL8DzLu-37" value="消费者" style="verticalLabelPosition=bottom;shadow=0;dashed=0;align=center;html=1;verticalAlign=top;strokeWidth=1;shape=mxgraph.mockup.containers.userMale;strokeColor=#666666;strokeColor2=#008cff;fontSize=16;" vertex="1" parent="1">
          <mxGeometry x="530" y="1140" width="90" height="90" as="geometry" />
        </mxCell>
        <mxCell id="WOlkQkPbS2jkbCL8DzLu-38" value="&lt;font style=&quot;font-size: 24px;&quot;&gt;&lt;br&gt;系统角色：&lt;/font&gt;" style="text;html=1;strokeColor=#6666FF;fillColor=none;align=center;verticalAlign=top;whiteSpace=wrap;rounded=0;fontSize=16;dashed=1;strokeWidth=4;" vertex="1" parent="1">
          <mxGeometry x="30" y="1043.5" width="770" height="285" as="geometry" />
        </mxCell>
      </root>
    </mxGraphModel>
  </diagram>
</mxfile>
